<?xml version="1.0" encoding="UTF-8" standalone="no"?>
<!DOCTYPE svg PUBLIC "-//W3C//DTD SVG 1.1//EN" "http://www.w3.org/Graphics/SVG/1.1/DTD/svg11.dtd">
<svg width="100%" height="100%" viewBox="0 0 1024 1024" version="1.1" xmlns="http://www.w3.org/2000/svg" xmlns:xlink="http://www.w3.org/1999/xlink" xml:space="preserve" xmlns:serif="http://www.serif.com/" style="fill-rule:evenodd;clip-rule:evenodd;stroke-linecap:round;stroke-linejoin:round;stroke-miterlimit:1.5;">
    <g id="cent-ticks" transform="matrix(0.962891,0,0,0.962891,19,19)">
        <clipPath id="_clip1">
            <path d="M512,0C794.58,0 1024,229.42 1024,512C1024,794.58 794.58,1024 512,1024C229.42,1024 0,794.58 0,512C0,229.42 229.42,0 512,0ZM512,13.325C787.226,13.325 1010.68,236.774 1010.68,512C1010.68,787.226 787.226,1010.68 512,1010.68C236.774,1010.68 13.325,787.226 13.325,512C13.325,236.774 236.774,13.325 512,13.325Z"/>
        </clipPath>
        <g clip-path="url(#_clip1)">
            <g transform="matrix(0.99964,0.0268405,-0.0268405,0.99964,13.9268,-13.5579)">
                <g transform="matrix(0.988267,0,0,0.9906,6.00733,-2.38912)">
                    <path d="M512,2.412L512,1036.13" style="fill:none;stroke:rgb(67,111,142);stroke-width:1.05px;"/>
                </g>
                <g transform="matrix(0.954593,0.255782,-0.256386,0.956846,156.382,-115.822)">
                    <path d="M512,2.412L512,1036.13" style="fill:none;stroke:rgb(67,111,142);stroke-width:1.05px;"/>
                </g>
                <g transform="matrix(0.855864,0.494133,-0.4953,0.857885,330.992,-186.47)">
                    <path d="M512,2.412L512,1036.13" style="fill:none;stroke:rgb(67,111,142);stroke-width:1.05px;"/>
                </g>
                <g transform="matrix(0.69881,0.69881,-0.70046,0.70046,517.937,-209.519)">
                    <path d="M512,2.412L512,1036.13" style="fill:none;stroke:rgb(67,111,142);stroke-width:1.05px;"/>
                </g>
                <g transform="matrix(0.494133,0.855864,-0.857885,0.4953,704.478,-183.397)">
                    <path d="M512,2.412L512,1036.13" style="fill:none;stroke:rgb(67,111,142);stroke-width:1.05px;"/>
                </g>
                <g transform="matrix(0.255782,0.954593,-0.956846,0.256386,877.901,-109.885)">
                    <path d="M512,2.412L512,1036.13" style="fill:none;stroke:rgb(67,111,142);stroke-width:1.05px;"/>
                </g>
                <g transform="matrix(1.38778e-16,0.988267,-0.9906,1.94289e-16,1026.39,6.00733)">
                    <path d="M512,2.412L512,1036.13" style="fill:none;stroke:rgb(67,111,142);stroke-width:1.05px;"/>
                </g>
                <g transform="matrix(-0.255782,0.954593,-0.956846,-0.256386,1139.82,156.382)">
                    <path d="M512,2.412L512,1036.13" style="fill:none;stroke:rgb(67,111,142);stroke-width:1.05px;"/>
                </g>
                <g transform="matrix(-0.494133,0.855864,-0.857885,-0.4953,1210.47,330.992)">
                    <path d="M512,2.412L512,1036.13" style="fill:none;stroke:rgb(67,111,142);stroke-width:1.05px;"/>
                </g>
                <g transform="matrix(-0.69881,0.69881,-0.70046,-0.70046,1233.52,517.937)">
                    <path d="M512,2.412L512,1036.13" style="fill:none;stroke:rgb(67,111,142);stroke-width:1.05px;"/>
                </g>
                <g transform="matrix(-0.855864,0.494133,-0.4953,-0.857885,1207.4,704.478)">
                    <path d="M512,2.412L512,1036.13" style="fill:none;stroke:rgb(67,111,142);stroke-width:1.05px;"/>
                </g>
                <g transform="matrix(-0.954593,0.255782,-0.256386,-0.956846,1133.89,877.901)">
                    <path d="M512,2.412L512,1036.13" style="fill:none;stroke:rgb(67,111,142);stroke-width:1.05px;"/>
                </g>
            </g>
            <g transform="matrix(0.998632,0.0522901,-0.0522901,0.998632,27.473,-26.0721)">
                <g transform="matrix(0.988267,0,0,0.9906,6.00733,-2.38912)">
                    <path d="M512,2.412L512,1036.13" style="fill:none;stroke:rgb(67,111,142);stroke-width:1.05px;"/>
                </g>
                <g transform="matrix(0.954593,0.255782,-0.256386,0.956846,156.382,-115.822)">
                    <path d="M512,2.412L512,1036.13" style="fill:none;stroke:rgb(67,111,142);stroke-width:1.05px;"/>
                </g>
                <g transform="matrix(0.855864,0.494133,-0.4953,0.857885,330.992,-186.47)">
                    <path d="M512,2.412L512,1036.13" style="fill:none;stroke:rgb(67,111,142);stroke-width:1.05px;"/>
                </g>
                <g transform="matrix(0.69881,0.69881,-0.70046,0.70046,517.937,-209.519)">
                    <path d="M512,2.412L512,1036.13" style="fill:none;stroke:rgb(67,111,142);stroke-width:1.05px;"/>
                </g>
                <g transform="matrix(0.494133,0.855864,-0.857885,0.4953,704.478,-183.397)">
                    <path d="M512,2.412L512,1036.13" style="fill:none;stroke:rgb(67,111,142);stroke-width:1.05px;"/>
                </g>
                <g transform="matrix(0.255782,0.954593,-0.956846,0.256386,877.901,-109.885)">
                    <path d="M512,2.412L512,1036.13" style="fill:none;stroke:rgb(67,111,142);stroke-width:1.05px;"/>
                </g>
                <g transform="matrix(1.38778e-16,0.988267,-0.9906,1.94289e-16,1026.39,6.00733)">
                    <path d="M512,2.412L512,1036.13" style="fill:none;stroke:rgb(67,111,142);stroke-width:1.05px;"/>
                </g>
                <g transform="matrix(-0.255782,0.954593,-0.956846,-0.256386,1139.82,156.382)">
                    <path d="M512,2.412L512,1036.13" style="fill:none;stroke:rgb(67,111,142);stroke-width:1.05px;"/>
                </g>
                <g transform="matrix(-0.494133,0.855864,-0.857885,-0.4953,1210.47,330.992)">
                    <path d="M512,2.412L512,1036.13" style="fill:none;stroke:rgb(67,111,142);stroke-width:1.05px;"/>
                </g>
                <g transform="matrix(-0.69881,0.69881,-0.70046,-0.70046,1233.52,517.937)">
                    <path d="M512,2.412L512,1036.13" style="fill:none;stroke:rgb(67,111,142);stroke-width:1.05px;"/>
                </g>
                <g transform="matrix(-0.855864,0.494133,-0.4953,-0.857885,1207.4,704.478)">
                    <path d="M512,2.412L512,1036.13" style="fill:none;stroke:rgb(67,111,142);stroke-width:1.05px;"/>
                </g>
                <g transform="matrix(-0.954593,0.255782,-0.256386,-0.956846,1133.89,877.901)">
                    <path d="M512,2.412L512,1036.13" style="fill:none;stroke:rgb(67,111,142);stroke-width:1.05px;"/>
                </g>
            </g>
            <g transform="matrix(0.996917,0.0784591,-0.0784591,0.996917,41.7494,-38.5927)">
                <g transform="matrix(0.988267,0,0,0.9906,6.00733,-2.38912)">
                    <path d="M512,2.412L512,1036.13" style="fill:none;stroke:rgb(67,111,142);stroke-width:1.05px;"/>
                </g>
                <g transform="matrix(0.954593,0.255782,-0.256386,0.956846,156.382,-115.822)">
                    <path d="M512,2.412L512,1036.13" style="fill:none;stroke:rgb(67,111,142);stroke-width:1.05px;"/>
                </g>
                <g transform="matrix(0.855864,0.494133,-0.4953,0.857885,330.992,-186.47)">
                    <path d="M512,2.412L512,1036.13" style="fill:none;stroke:rgb(67,111,142);stroke-width:1.05px;"/>
                </g>
                <g transform="matrix(0.69881,0.69881,-0.70046,0.70046,517.937,-209.519)">
                    <path d="M512,2.412L512,1036.13" style="fill:none;stroke:rgb(67,111,142);stroke-width:1.05px;"/>
                </g>
                <g transform="matrix(0.494133,0.855864,-0.857885,0.4953,704.478,-183.397)">
                    <path d="M512,2.412L512,1036.13" style="fill:none;stroke:rgb(67,111,142);stroke-width:1.05px;"/>
                </g>
                <g transform="matrix(0.255782,0.954593,-0.956846,0.256386,877.901,-109.885)">
                    <path d="M512,2.412L512,1036.13" style="fill:none;stroke:rgb(67,111,142);stroke-width:1.05px;"/>
                </g>
                <g transform="matrix(1.38778e-16,0.988267,-0.9906,1.94289e-16,1026.39,6.00733)">
                    <path d="M512,2.412L512,1036.13" style="fill:none;stroke:rgb(67,111,142);stroke-width:1.05px;"/>
                </g>
                <g transform="matrix(-0.255782,0.954593,-0.956846,-0.256386,1139.82,156.382)">
                    <path d="M512,2.412L512,1036.13" style="fill:none;stroke:rgb(67,111,142);stroke-width:1.05px;"/>
                </g>
                <g transform="matrix(-0.494133,0.855864,-0.857885,-0.4953,1210.47,330.992)">
                    <path d="M512,2.412L512,1036.13" style="fill:none;stroke:rgb(67,111,142);stroke-width:1.05px;"/>
                </g>
                <g transform="matrix(-0.69881,0.69881,-0.70046,-0.70046,1233.52,517.937)">
                    <path d="M512,2.412L512,1036.13" style="fill:none;stroke:rgb(67,111,142);stroke-width:1.05px;"/>
                </g>
                <g transform="matrix(-0.855864,0.494133,-0.4953,-0.857885,1207.4,704.478)">
                    <path d="M512,2.412L512,1036.13" style="fill:none;stroke:rgb(67,111,142);stroke-width:1.05px;"/>
                </g>
                <g transform="matrix(-0.954593,0.255782,-0.256386,-0.956846,1133.89,877.901)">
                    <path d="M512,2.412L512,1036.13" style="fill:none;stroke:rgb(67,111,142);stroke-width:1.05px;"/>
                </g>
            </g>
            <g transform="matrix(0.994522,0.104528,-0.104528,0.994522,56.3234,-50.7138)">
                <g transform="matrix(0.988267,0,0,0.9906,6.00733,-2.38912)">
                    <path d="M512,2.412L512,1036.13" style="fill:none;stroke:rgb(67,111,142);stroke-width:1.05px;"/>
                </g>
                <g transform="matrix(0.954593,0.255782,-0.256386,0.956846,156.382,-115.822)">
                    <path d="M512,2.412L512,1036.13" style="fill:none;stroke:rgb(67,111,142);stroke-width:1.05px;"/>
                </g>
                <g transform="matrix(0.855864,0.494133,-0.4953,0.857885,330.992,-186.47)">
                    <path d="M512,2.412L512,1036.13" style="fill:none;stroke:rgb(67,111,142);stroke-width:1.05px;"/>
                </g>
                <g transform="matrix(0.69881,0.69881,-0.70046,0.70046,517.937,-209.519)">
                    <path d="M512,2.412L512,1036.13" style="fill:none;stroke:rgb(67,111,142);stroke-width:1.05px;"/>
                </g>
                <g transform="matrix(0.494133,0.855864,-0.857885,0.4953,704.478,-183.397)">
                    <path d="M512,2.412L512,1036.13" style="fill:none;stroke:rgb(67,111,142);stroke-width:1.05px;"/>
                </g>
                <g transform="matrix(0.255782,0.954593,-0.956846,0.256386,877.901,-109.885)">
                    <path d="M512,2.412L512,1036.13" style="fill:none;stroke:rgb(67,111,142);stroke-width:1.05px;"/>
                </g>
                <g transform="matrix(1.38778e-16,0.988267,-0.9906,1.94289e-16,1026.39,6.00733)">
                    <path d="M512,2.412L512,1036.13" style="fill:none;stroke:rgb(67,111,142);stroke-width:1.05px;"/>
                </g>
                <g transform="matrix(-0.255782,0.954593,-0.956846,-0.256386,1139.82,156.382)">
                    <path d="M512,2.412L512,1036.13" style="fill:none;stroke:rgb(67,111,142);stroke-width:1.05px;"/>
                </g>
                <g transform="matrix(-0.494133,0.855864,-0.857885,-0.4953,1210.47,330.992)">
                    <path d="M512,2.412L512,1036.13" style="fill:none;stroke:rgb(67,111,142);stroke-width:1.05px;"/>
                </g>
                <g transform="matrix(-0.69881,0.69881,-0.70046,-0.70046,1233.52,517.937)">
                    <path d="M512,2.412L512,1036.13" style="fill:none;stroke:rgb(67,111,142);stroke-width:1.05px;"/>
                </g>
                <g transform="matrix(-0.855864,0.494133,-0.4953,-0.857885,1207.4,704.478)">
                    <path d="M512,2.412L512,1036.13" style="fill:none;stroke:rgb(67,111,142);stroke-width:1.05px;"/>
                </g>
                <g transform="matrix(-0.954593,0.255782,-0.256386,-0.956846,1133.89,877.901)">
                    <path d="M512,2.412L512,1036.13" style="fill:none;stroke:rgb(67,111,142);stroke-width:1.05px;"/>
                </g>
            </g>
            <g transform="matrix(0.991445,0.130526,-0.130526,0.991445,71.2096,-62.4492)">
                <g transform="matrix(0.988267,0,0,0.9906,6.00733,-2.38912)">
                    <path d="M512,2.412L512,1036.13" style="fill:none;stroke:rgb(67,111,142);stroke-width:1.05px;"/>
                </g>
                <g transform="matrix(0.954593,0.255782,-0.256386,0.956846,156.382,-115.822)">
                    <path d="M512,2.412L512,1036.13" style="fill:none;stroke:rgb(67,111,142);stroke-width:1.05px;"/>
                </g>
                <g transform="matrix(0.855864,0.494133,-0.4953,0.857885,330.992,-186.47)">
                    <path d="M512,2.412L512,1036.13" style="fill:none;stroke:rgb(67,111,142);stroke-width:1.05px;"/>
                </g>
                <g transform="matrix(0.69881,0.69881,-0.70046,0.70046,517.937,-209.519)">
                    <path d="M512,2.412L512,1036.13" style="fill:none;stroke:rgb(67,111,142);stroke-width:1.05px;"/>
                </g>
                <g transform="matrix(0.494133,0.855864,-0.857885,0.4953,704.478,-183.397)">
                    <path d="M512,2.412L512,1036.13" style="fill:none;stroke:rgb(67,111,142);stroke-width:1.05px;"/>
                </g>
                <g transform="matrix(0.255782,0.954593,-0.956846,0.256386,877.901,-109.885)">
                    <path d="M512,2.412L512,1036.13" style="fill:none;stroke:rgb(67,111,142);stroke-width:1.05px;"/>
                </g>
                <g transform="matrix(1.38778e-16,0.988267,-0.9906,1.94289e-16,1026.39,6.00733)">
                    <path d="M512,2.412L512,1036.13" style="fill:none;stroke:rgb(67,111,142);stroke-width:1.05px;"/>
                </g>
                <g transform="matrix(-0.255782,0.954593,-0.956846,-0.256386,1139.82,156.382)">
                    <path d="M512,2.412L512,1036.13" style="fill:none;stroke:rgb(67,111,142);stroke-width:1.05px;"/>
                </g>
                <g transform="matrix(-0.494133,0.855864,-0.857885,-0.4953,1210.47,330.992)">
                    <path d="M512,2.412L512,1036.13" style="fill:none;stroke:rgb(67,111,142);stroke-width:1.05px;"/>
                </g>
                <g transform="matrix(-0.69881,0.69881,-0.70046,-0.70046,1233.52,517.937)">
                    <path d="M512,2.412L512,1036.13" style="fill:none;stroke:rgb(67,111,142);stroke-width:1.05px;"/>
                </g>
                <g transform="matrix(-0.855864,0.494133,-0.4953,-0.857885,1207.4,704.478)">
                    <path d="M512,2.412L512,1036.13" style="fill:none;stroke:rgb(67,111,142);stroke-width:1.05px;"/>
                </g>
                <g transform="matrix(-0.954593,0.255782,-0.256386,-0.956846,1133.89,877.901)">
                    <path d="M512,2.412L512,1036.13" style="fill:none;stroke:rgb(67,111,142);stroke-width:1.05px;"/>
                </g>
            </g>
            <g transform="matrix(0.987688,0.156434,-0.156434,0.987688,86.398,-73.7909)">
                <g transform="matrix(0.988267,0,0,0.9906,6.00733,-2.38912)">
                    <path d="M512,2.412L512,1036.13" style="fill:none;stroke:rgb(67,111,142);stroke-width:1.05px;"/>
                </g>
                <g transform="matrix(0.954593,0.255782,-0.256386,0.956846,156.382,-115.822)">
                    <path d="M512,2.412L512,1036.13" style="fill:none;stroke:rgb(67,111,142);stroke-width:1.05px;"/>
                </g>
                <g transform="matrix(0.855864,0.494133,-0.4953,0.857885,330.992,-186.47)">
                    <path d="M512,2.412L512,1036.13" style="fill:none;stroke:rgb(67,111,142);stroke-width:1.05px;"/>
                </g>
                <g transform="matrix(0.69881,0.69881,-0.70046,0.70046,517.937,-209.519)">
                    <path d="M512,2.412L512,1036.13" style="fill:none;stroke:rgb(67,111,142);stroke-width:1.05px;"/>
                </g>
                <g transform="matrix(0.494133,0.855864,-0.857885,0.4953,704.478,-183.397)">
                    <path d="M512,2.412L512,1036.13" style="fill:none;stroke:rgb(67,111,142);stroke-width:1.05px;"/>
                </g>
                <g transform="matrix(0.255782,0.954593,-0.956846,0.256386,877.901,-109.885)">
                    <path d="M512,2.412L512,1036.13" style="fill:none;stroke:rgb(67,111,142);stroke-width:1.05px;"/>
                </g>
                <g transform="matrix(1.38778e-16,0.988267,-0.9906,1.94289e-16,1026.39,6.00733)">
                    <path d="M512,2.412L512,1036.13" style="fill:none;stroke:rgb(67,111,142);stroke-width:1.05px;"/>
                </g>
                <g transform="matrix(-0.255782,0.954593,-0.956846,-0.256386,1139.82,156.382)">
                    <path d="M512,2.412L512,1036.13" style="fill:none;stroke:rgb(67,111,142);stroke-width:1.05px;"/>
                </g>
                <g transform="matrix(-0.494133,0.855864,-0.857885,-0.4953,1210.47,330.992)">
                    <path d="M512,2.412L512,1036.13" style="fill:none;stroke:rgb(67,111,142);stroke-width:1.05px;"/>
                </g>
                <g transform="matrix(-0.69881,0.69881,-0.70046,-0.70046,1233.52,517.937)">
                    <path d="M512,2.412L512,1036.13" style="fill:none;stroke:rgb(67,111,142);stroke-width:1.05px;"/>
                </g>
                <g transform="matrix(-0.855864,0.494133,-0.4953,-0.857885,1207.4,704.478)">
                    <path d="M512,2.412L512,1036.13" style="fill:none;stroke:rgb(67,111,142);stroke-width:1.05px;"/>
                </g>
                <g transform="matrix(-0.954593,0.255782,-0.256386,-0.956846,1133.89,877.901)">
                    <path d="M512,2.412L512,1036.13" style="fill:none;stroke:rgb(67,111,142);stroke-width:1.05px;"/>
                </g>
            </g>
            <g transform="matrix(0.983255,0.182236,-0.182236,0.983255,101.878,-84.7311)">
                <g transform="matrix(0.988267,0,0,0.9906,6.00733,-2.38912)">
                    <path d="M512,2.412L512,1036.13" style="fill:none;stroke:rgb(67,111,142);stroke-width:1.05px;"/>
                </g>
                <g transform="matrix(0.954593,0.255782,-0.256386,0.956846,156.382,-115.822)">
                    <path d="M512,2.412L512,1036.13" style="fill:none;stroke:rgb(67,111,142);stroke-width:1.05px;"/>
                </g>
                <g transform="matrix(0.855864,0.494133,-0.4953,0.857885,330.992,-186.47)">
                    <path d="M512,2.412L512,1036.13" style="fill:none;stroke:rgb(67,111,142);stroke-width:1.05px;"/>
                </g>
                <g transform="matrix(0.69881,0.69881,-0.70046,0.70046,517.937,-209.519)">
                    <path d="M512,2.412L512,1036.13" style="fill:none;stroke:rgb(67,111,142);stroke-width:1.05px;"/>
                </g>
                <g transform="matrix(0.494133,0.855864,-0.857885,0.4953,704.478,-183.397)">
                    <path d="M512,2.412L512,1036.13" style="fill:none;stroke:rgb(67,111,142);stroke-width:1.05px;"/>
                </g>
                <g transform="matrix(0.255782,0.954593,-0.956846,0.256386,877.901,-109.885)">
                    <path d="M512,2.412L512,1036.13" style="fill:none;stroke:rgb(67,111,142);stroke-width:1.05px;"/>
                </g>
                <g transform="matrix(1.38778e-16,0.988267,-0.9906,1.94289e-16,1026.39,6.00733)">
                    <path d="M512,2.412L512,1036.13" style="fill:none;stroke:rgb(67,111,142);stroke-width:1.05px;"/>
                </g>
                <g transform="matrix(-0.255782,0.954593,-0.956846,-0.256386,1139.82,156.382)">
                    <path d="M512,2.412L512,1036.13" style="fill:none;stroke:rgb(67,111,142);stroke-width:1.05px;"/>
                </g>
                <g transform="matrix(-0.494133,0.855864,-0.857885,-0.4953,1210.47,330.992)">
                    <path d="M512,2.412L512,1036.13" style="fill:none;stroke:rgb(67,111,142);stroke-width:1.05px;"/>
                </g>
                <g transform="matrix(-0.69881,0.69881,-0.70046,-0.70046,1233.52,517.937)">
                    <path d="M512,2.412L512,1036.13" style="fill:none;stroke:rgb(67,111,142);stroke-width:1.05px;"/>
                </g>
                <g transform="matrix(-0.855864,0.494133,-0.4953,-0.857885,1207.4,704.478)">
                    <path d="M512,2.412L512,1036.13" style="fill:none;stroke:rgb(67,111,142);stroke-width:1.05px;"/>
                </g>
                <g transform="matrix(-0.954593,0.255782,-0.256386,-0.956846,1133.89,877.901)">
                    <path d="M512,2.412L512,1036.13" style="fill:none;stroke:rgb(67,111,142);stroke-width:1.05px;"/>
                </g>
            </g>
            <g transform="matrix(0.978148,0.207912,-0.207912,0.978148,117.639,-95.2624)">
                <g transform="matrix(0.988267,0,0,0.9906,6.00733,-2.38912)">
                    <path d="M512,2.412L512,1036.13" style="fill:none;stroke:rgb(67,111,142);stroke-width:1.05px;"/>
                </g>
                <g transform="matrix(0.954593,0.255782,-0.256386,0.956846,156.382,-115.822)">
                    <path d="M512,2.412L512,1036.13" style="fill:none;stroke:rgb(67,111,142);stroke-width:1.05px;"/>
                </g>
                <g transform="matrix(0.855864,0.494133,-0.4953,0.857885,330.992,-186.47)">
                    <path d="M512,2.412L512,1036.13" style="fill:none;stroke:rgb(67,111,142);stroke-width:1.05px;"/>
                </g>
                <g transform="matrix(0.69881,0.69881,-0.70046,0.70046,517.937,-209.519)">
                    <path d="M512,2.412L512,1036.13" style="fill:none;stroke:rgb(67,111,142);stroke-width:1.05px;"/>
                </g>
                <g transform="matrix(0.494133,0.855864,-0.857885,0.4953,704.478,-183.397)">
                    <path d="M512,2.412L512,1036.13" style="fill:none;stroke:rgb(67,111,142);stroke-width:1.05px;"/>
                </g>
                <g transform="matrix(0.255782,0.954593,-0.956846,0.256386,877.901,-109.885)">
                    <path d="M512,2.412L512,1036.13" style="fill:none;stroke:rgb(67,111,142);stroke-width:1.05px;"/>
                </g>
                <g transform="matrix(1.38778e-16,0.988267,-0.9906,1.94289e-16,1026.39,6.00733)">
                    <path d="M512,2.412L512,1036.13" style="fill:none;stroke:rgb(67,111,142);stroke-width:1.05px;"/>
                </g>
                <g transform="matrix(-0.255782,0.954593,-0.956846,-0.256386,1139.82,156.382)">
                    <path d="M512,2.412L512,1036.13" style="fill:none;stroke:rgb(67,111,142);stroke-width:1.05px;"/>
                </g>
                <g transform="matrix(-0.494133,0.855864,-0.857885,-0.4953,1210.47,330.992)">
                    <path d="M512,2.412L512,1036.13" style="fill:none;stroke:rgb(67,111,142);stroke-width:1.05px;"/>
                </g>
                <g transform="matrix(-0.69881,0.69881,-0.70046,-0.70046,1233.52,517.937)">
                    <path d="M512,2.412L512,1036.13" style="fill:none;stroke:rgb(67,111,142);stroke-width:1.05px;"/>
                </g>
                <g transform="matrix(-0.855864,0.494133,-0.4953,-0.857885,1207.4,704.478)">
                    <path d="M512,2.412L512,1036.13" style="fill:none;stroke:rgb(67,111,142);stroke-width:1.05px;"/>
                </g>
                <g transform="matrix(-0.954593,0.255782,-0.256386,-0.956846,1133.89,877.901)">
                    <path d="M512,2.412L512,1036.13" style="fill:none;stroke:rgb(67,111,142);stroke-width:1.05px;"/>
                </g>
            </g>
            <g transform="matrix(0.97237,0.233445,-0.233445,0.97237,133.671,-105.377)">
                <g transform="matrix(0.988267,0,0,0.9906,6.00733,-2.38912)">
                    <path d="M512,2.412L512,1036.13" style="fill:none;stroke:rgb(67,111,142);stroke-width:1.05px;"/>
                </g>
                <g transform="matrix(0.954593,0.255782,-0.256386,0.956846,156.382,-115.822)">
                    <path d="M512,2.412L512,1036.13" style="fill:none;stroke:rgb(67,111,142);stroke-width:1.05px;"/>
                </g>
                <g transform="matrix(0.855864,0.494133,-0.4953,0.857885,330.992,-186.47)">
                    <path d="M512,2.412L512,1036.13" style="fill:none;stroke:rgb(67,111,142);stroke-width:1.05px;"/>
                </g>
                <g transform="matrix(0.69881,0.69881,-0.70046,0.70046,517.937,-209.519)">
                    <path d="M512,2.412L512,1036.13" style="fill:none;stroke:rgb(67,111,142);stroke-width:1.05px;"/>
                </g>
                <g transform="matrix(0.494133,0.855864,-0.857885,0.4953,704.478,-183.397)">
                    <path d="M512,2.412L512,1036.13" style="fill:none;stroke:rgb(67,111,142);stroke-width:1.05px;"/>
                </g>
                <g transform="matrix(0.255782,0.954593,-0.956846,0.256386,877.901,-109.885)">
                    <path d="M512,2.412L512,1036.13" style="fill:none;stroke:rgb(67,111,142);stroke-width:1.05px;"/>
                </g>
                <g transform="matrix(1.38778e-16,0.988267,-0.9906,1.94289e-16,1026.39,6.00733)">
                    <path d="M512,2.412L512,1036.13" style="fill:none;stroke:rgb(67,111,142);stroke-width:1.05px;"/>
                </g>
                <g transform="matrix(-0.255782,0.954593,-0.956846,-0.256386,1139.82,156.382)">
                    <path d="M512,2.412L512,1036.13" style="fill:none;stroke:rgb(67,111,142);stroke-width:1.05px;"/>
                </g>
                <g transform="matrix(-0.494133,0.855864,-0.857885,-0.4953,1210.47,330.992)">
                    <path d="M512,2.412L512,1036.13" style="fill:none;stroke:rgb(67,111,142);stroke-width:1.05px;"/>
                </g>
                <g transform="matrix(-0.69881,0.69881,-0.70046,-0.70046,1233.52,517.937)">
                    <path d="M512,2.412L512,1036.13" style="fill:none;stroke:rgb(67,111,142);stroke-width:1.05px;"/>
                </g>
                <g transform="matrix(-0.855864,0.494133,-0.4953,-0.857885,1207.4,704.478)">
                    <path d="M512,2.412L512,1036.13" style="fill:none;stroke:rgb(67,111,142);stroke-width:1.05px;"/>
                </g>
                <g transform="matrix(-0.954593,0.255782,-0.256386,-0.956846,1133.89,877.901)">
                    <path d="M512,2.412L512,1036.13" style="fill:none;stroke:rgb(67,111,142);stroke-width:1.05px;"/>
                </g>
            </g>
        </g>
    </g>
    <g id="note-ticks" transform="matrix(0.962891,0,0,0.962891,19,19)">
        <clipPath id="_clip2">
            <path d="M512,0C794.58,0 1024,229.42 1024,512C1024,794.58 794.58,1024 512,1024C229.42,1024 0,794.58 0,512C0,229.42 229.42,0 512,0ZM512,19.09C784.045,19.09 1004.91,239.955 1004.91,512C1004.91,784.045 784.045,1004.91 512,1004.91C239.955,1004.91 19.09,784.045 19.09,512C19.09,239.955 239.955,19.09 512,19.09Z"/>
        </clipPath>
        <g clip-path="url(#_clip2)">
            <g transform="matrix(0.988267,0,0,0.9906,6.00733,-2.38912)">
                <path d="M512,2.412L512,1036.13" style="fill:none;stroke:rgb(67,111,142);stroke-width:3.15px;"/>
            </g>
            <g transform="matrix(0.954593,0.255782,-0.256386,0.956846,156.382,-115.822)">
                <path d="M512,2.412L512,1036.13" style="fill:none;stroke:rgb(67,111,142);stroke-width:3.15px;"/>
            </g>
            <g transform="matrix(0.855864,0.494133,-0.4953,0.857885,330.992,-186.47)">
                <path d="M512,2.412L512,1036.13" style="fill:none;stroke:rgb(67,111,142);stroke-width:3.15px;"/>
            </g>
            <g transform="matrix(0.69881,0.69881,-0.70046,0.70046,517.937,-209.519)">
                <path d="M512,2.412L512,1036.13" style="fill:none;stroke:rgb(67,111,142);stroke-width:3.15px;"/>
            </g>
            <g transform="matrix(0.494133,0.855864,-0.857885,0.4953,704.478,-183.397)">
                <path d="M512,2.412L512,1036.13" style="fill:none;stroke:rgb(67,111,142);stroke-width:3.15px;"/>
            </g>
            <g transform="matrix(0.255782,0.954593,-0.956846,0.256386,877.901,-109.885)">
                <path d="M512,2.412L512,1036.13" style="fill:none;stroke:rgb(67,111,142);stroke-width:3.15px;"/>
            </g>
            <g transform="matrix(1.38778e-16,0.988267,-0.9906,1.94289e-16,1026.39,6.00733)">
                <path d="M512,2.412L512,1036.13" style="fill:none;stroke:rgb(67,111,142);stroke-width:3.15px;"/>
            </g>
            <g transform="matrix(-0.255782,0.954593,-0.956846,-0.256386,1139.82,156.382)">
                <path d="M512,2.412L512,1036.13" style="fill:none;stroke:rgb(67,111,142);stroke-width:3.15px;"/>
            </g>
            <g transform="matrix(-0.494133,0.855864,-0.857885,-0.4953,1210.47,330.992)">
                <path d="M512,2.412L512,1036.13" style="fill:none;stroke:rgb(67,111,142);stroke-width:3.15px;"/>
            </g>
            <g transform="matrix(-0.69881,0.69881,-0.70046,-0.70046,1233.52,517.937)">
                <path d="M512,2.412L512,1036.13" style="fill:none;stroke:rgb(67,111,142);stroke-width:3.15px;"/>
            </g>
            <g transform="matrix(-0.855864,0.494133,-0.4953,-0.857885,1207.4,704.478)">
                <path d="M512,2.412L512,1036.13" style="fill:none;stroke:rgb(67,111,142);stroke-width:3.15px;"/>
            </g>
            <g transform="matrix(-0.954593,0.255782,-0.256386,-0.956846,1133.89,877.901)">
                <path d="M512,2.412L512,1036.13" style="fill:none;stroke:rgb(67,111,142);stroke-width:3.15px;"/>
            </g>
        </g>
    </g>
    <g id="notes" transform="matrix(0.962891,0,0,0.962891,19,19)">
        <g transform="matrix(0.965926,-0.258819,0.258819,0.965926,-119.899,157.859)">
            <g transform="matrix(48,0,0,48,506.714,65.5879)">
                <path d="M0.063,-0.714L0.245,-0.714C0.319,-0.714 0.373,-0.699 0.407,-0.671C0.441,-0.642 0.458,-0.596 0.458,-0.533C0.458,-0.492 0.449,-0.457 0.431,-0.429C0.413,-0.402 0.389,-0.385 0.358,-0.379L0.358,-0.374C0.398,-0.364 0.427,-0.345 0.445,-0.317C0.463,-0.29 0.472,-0.253 0.472,-0.207C0.472,-0.142 0.455,-0.092 0.42,-0.055C0.385,-0.018 0.338,-0 0.278,-0L0.063,-0L0.063,-0.714ZM0.188,-0.427L0.249,-0.427C0.277,-0.427 0.297,-0.434 0.308,-0.449C0.319,-0.464 0.325,-0.486 0.325,-0.516C0.325,-0.546 0.319,-0.567 0.306,-0.58C0.293,-0.593 0.272,-0.599 0.244,-0.599L0.188,-0.599L0.188,-0.427ZM0.188,-0.316L0.188,-0.116L0.255,-0.116C0.283,-0.116 0.303,-0.125 0.317,-0.142C0.33,-0.159 0.337,-0.185 0.337,-0.22C0.337,-0.284 0.309,-0.316 0.253,-0.316L0.188,-0.316Z" style="fill:rgb(67,111,142);fill-rule:nonzero;"/>
            </g>
        </g>
        <g transform="matrix(0.866025,-0.5,0.5,0.866025,-187.875,333.132)">
            <g transform="matrix(48,0,0,48,493.003,65.5879)">
                <path d="M0.401,-0L0.36,-0.18L0.174,-0.18L0.133,-0L0,-0L0.177,-0.717L0.357,-0.717L0.534,-0L0.401,-0ZM0.335,-0.298L0.297,-0.464C0.295,-0.474 0.289,-0.499 0.281,-0.54C0.274,-0.58 0.269,-0.607 0.267,-0.621C0.263,-0.593 0.257,-0.562 0.251,-0.529C0.244,-0.495 0.228,-0.418 0.2,-0.298L0.335,-0.298Z" style="fill:rgb(67,111,142);fill-rule:nonzero;"/>
            </g>
            <g transform="matrix(48,0,0,48,518.644,65.5879)">
                <path d="M0.418,-0.418L0.4,-0.295L0.499,-0.295L0.499,-0.2L0.387,-0.2L0.358,-0L0.264,-0L0.294,-0.2L0.205,-0.2L0.177,-0L0.083,-0L0.112,-0.2L0.02,-0.2L0.02,-0.295L0.126,-0.295L0.144,-0.418L0.046,-0.418L0.046,-0.512L0.158,-0.512L0.187,-0.714L0.279,-0.714L0.25,-0.512L0.339,-0.512L0.369,-0.714L0.461,-0.714L0.432,-0.512L0.525,-0.512L0.525,-0.418L0.418,-0.418ZM0.219,-0.295L0.307,-0.295L0.325,-0.418L0.236,-0.418L0.219,-0.295Z" style="fill:rgb(67,111,142);fill-rule:nonzero;"/>
            </g>
        </g>
        <g transform="matrix(0.707107,-0.707107,0.707107,0.707107,-211.033,521.213)">
            <g transform="matrix(48,0,0,48,506.058,65.5879)">
                <path d="M0.401,-0L0.36,-0.18L0.174,-0.18L0.133,-0L0,-0L0.177,-0.717L0.357,-0.717L0.534,-0L0.401,-0ZM0.335,-0.298L0.297,-0.464C0.295,-0.474 0.289,-0.499 0.281,-0.54C0.274,-0.58 0.269,-0.607 0.267,-0.621C0.263,-0.593 0.257,-0.562 0.251,-0.529C0.244,-0.495 0.228,-0.418 0.2,-0.298L0.335,-0.298Z" style="fill:rgb(67,111,142);fill-rule:nonzero;"/>
            </g>
        </g>
        <g transform="matrix(0.5,-0.866025,0.866025,0.5,-184.75,708.894)">
            <g transform="matrix(48,0,0,48,492.792,65.5879)">
                <path d="M0.279,-0.396L0.497,-0.396L0.497,-0.03C0.435,-0.003 0.369,0.01 0.3,0.01C0.217,0.01 0.153,-0.022 0.108,-0.085C0.063,-0.148 0.041,-0.239 0.041,-0.358C0.041,-0.472 0.067,-0.562 0.118,-0.627C0.169,-0.692 0.241,-0.724 0.333,-0.724C0.39,-0.724 0.444,-0.709 0.496,-0.68L0.454,-0.572C0.414,-0.595 0.376,-0.607 0.341,-0.607C0.29,-0.607 0.25,-0.584 0.221,-0.539C0.191,-0.494 0.177,-0.433 0.177,-0.355C0.177,-0.275 0.187,-0.214 0.209,-0.171C0.23,-0.128 0.261,-0.107 0.302,-0.107C0.323,-0.107 0.345,-0.11 0.367,-0.115L0.367,-0.279L0.279,-0.279L0.279,-0.396Z" style="fill:rgb(67,111,142);fill-rule:nonzero;"/>
            </g>
            <g transform="matrix(48,0,0,48,518.855,65.5879)">
                <path d="M0.418,-0.418L0.4,-0.295L0.499,-0.295L0.499,-0.2L0.387,-0.2L0.358,-0L0.264,-0L0.294,-0.2L0.205,-0.2L0.177,-0L0.083,-0L0.112,-0.2L0.02,-0.2L0.02,-0.295L0.126,-0.295L0.144,-0.418L0.046,-0.418L0.046,-0.512L0.158,-0.512L0.187,-0.714L0.279,-0.714L0.25,-0.512L0.339,-0.512L0.369,-0.714L0.461,-0.714L0.432,-0.512L0.525,-0.512L0.525,-0.418L0.418,-0.418ZM0.219,-0.295L0.307,-0.295L0.325,-0.418L0.236,-0.418L0.219,-0.295Z" style="fill:rgb(67,111,142);fill-rule:nonzero;"/>
            </g>
        </g>
        <g transform="matrix(0.258819,-0.965926,0.965926,0.258819,-109.202,882.161)">
            <g transform="matrix(48,0,0,48,505.847,65.5879)">
                <path d="M0.279,-0.396L0.497,-0.396L0.497,-0.03C0.435,-0.003 0.369,0.01 0.3,0.01C0.217,0.01 0.153,-0.022 0.108,-0.085C0.063,-0.148 0.041,-0.239 0.041,-0.358C0.041,-0.472 0.067,-0.562 0.118,-0.627C0.169,-0.692 0.241,-0.724 0.333,-0.724C0.39,-0.724 0.444,-0.709 0.496,-0.68L0.454,-0.572C0.414,-0.595 0.376,-0.607 0.341,-0.607C0.29,-0.607 0.25,-0.584 0.221,-0.539C0.191,-0.494 0.177,-0.433 0.177,-0.355C0.177,-0.275 0.187,-0.214 0.209,-0.171C0.23,-0.128 0.261,-0.107 0.302,-0.107C0.323,-0.107 0.345,-0.11 0.367,-0.115L0.367,-0.279L0.279,-0.279L0.279,-0.396Z" style="fill:rgb(67,111,142);fill-rule:nonzero;"/>
            </g>
        </g>
        <g transform="matrix(6.12323e-17,-1,1,6.12323e-17,6.65482,1031.93)">
            <g transform="matrix(48,0,0,48,496.003,65.5879)">
                <path d="M0.195,-0L0.063,-0L0.063,-0.714L0.383,-0.714L0.383,-0.599L0.195,-0.599L0.195,-0.401L0.37,-0.401L0.37,-0.286L0.195,-0.286L0.195,-0Z" style="fill:rgb(67,111,142);fill-rule:nonzero;"/>
            </g>
            <g transform="matrix(48,0,0,48,515.644,65.5879)">
                <path d="M0.418,-0.418L0.4,-0.295L0.499,-0.295L0.499,-0.2L0.387,-0.2L0.358,-0L0.264,-0L0.294,-0.2L0.205,-0.2L0.177,-0L0.083,-0L0.112,-0.2L0.02,-0.2L0.02,-0.295L0.126,-0.295L0.144,-0.418L0.046,-0.418L0.046,-0.512L0.158,-0.512L0.187,-0.714L0.279,-0.714L0.25,-0.512L0.339,-0.512L0.369,-0.714L0.461,-0.714L0.432,-0.512L0.525,-0.512L0.525,-0.418L0.418,-0.418ZM0.219,-0.295L0.307,-0.295L0.325,-0.418L0.236,-0.418L0.219,-0.295Z" style="fill:rgb(67,111,142);fill-rule:nonzero;"/>
            </g>
        </g>
        <g transform="matrix(-0.258819,-0.965926,0.965926,-0.258819,158.59,1144.97)">
            <g transform="matrix(48,0,0,48,509.058,65.5879)">
                <path d="M0.195,-0L0.063,-0L0.063,-0.714L0.383,-0.714L0.383,-0.599L0.195,-0.599L0.195,-0.401L0.37,-0.401L0.37,-0.286L0.195,-0.286L0.195,-0Z" style="fill:rgb(67,111,142);fill-rule:nonzero;"/>
            </g>
        </g>
        <g transform="matrix(-0.5,-0.866025,0.866025,-0.5,334.656,1214.74)">
            <g transform="matrix(48,0,0,48,508.659,65.5879)">
                <path d="M0.385,-0L0.063,-0L0.063,-0.714L0.385,-0.714L0.385,-0.599L0.196,-0.599L0.196,-0.429L0.371,-0.429L0.371,-0.314L0.196,-0.314L0.196,-0.116L0.385,-0.116L0.385,-0Z" style="fill:rgb(67,111,142);fill-rule:nonzero;"/>
            </g>
        </g>
        <g transform="matrix(-0.707107,-0.707107,0.707107,-0.707107,522.463,1237.34)">
            <g transform="matrix(48,0,0,48,492.429,65.5879)">
                <path d="M0.517,-0.364C0.517,-0.246 0.493,-0.156 0.445,-0.094C0.397,-0.031 0.328,-0 0.238,-0L0.063,-0L0.063,-0.714L0.254,-0.714C0.337,-0.714 0.402,-0.683 0.448,-0.622C0.494,-0.56 0.517,-0.474 0.517,-0.364ZM0.381,-0.36C0.381,-0.519 0.337,-0.599 0.249,-0.599L0.196,-0.599L0.196,-0.116L0.239,-0.116C0.287,-0.116 0.323,-0.136 0.346,-0.177C0.369,-0.218 0.381,-0.278 0.381,-0.36Z" style="fill:rgb(67,111,142);fill-rule:nonzero;"/>
            </g>
            <g transform="matrix(48,0,0,48,519.218,65.5879)">
                <path d="M0.418,-0.418L0.4,-0.295L0.499,-0.295L0.499,-0.2L0.387,-0.2L0.358,-0L0.264,-0L0.294,-0.2L0.205,-0.2L0.177,-0L0.083,-0L0.112,-0.2L0.02,-0.2L0.02,-0.295L0.126,-0.295L0.144,-0.418L0.046,-0.418L0.046,-0.512L0.158,-0.512L0.187,-0.714L0.279,-0.714L0.25,-0.512L0.339,-0.512L0.369,-0.714L0.461,-0.714L0.432,-0.512L0.525,-0.512L0.525,-0.418L0.418,-0.418ZM0.219,-0.295L0.307,-0.295L0.325,-0.418L0.236,-0.418L0.219,-0.295Z" style="fill:rgb(67,111,142);fill-rule:nonzero;"/>
            </g>
        </g>
        <g transform="matrix(-0.866025,-0.5,0.5,-0.866025,709.925,1209.78)">
            <g transform="matrix(48,0,0,48,505.484,65.5879)">
                <path d="M0.517,-0.364C0.517,-0.246 0.493,-0.156 0.445,-0.094C0.397,-0.031 0.328,-0 0.238,-0L0.063,-0L0.063,-0.714L0.254,-0.714C0.337,-0.714 0.402,-0.683 0.448,-0.622C0.494,-0.56 0.517,-0.474 0.517,-0.364ZM0.381,-0.36C0.381,-0.519 0.337,-0.599 0.249,-0.599L0.196,-0.599L0.196,-0.116L0.239,-0.116C0.287,-0.116 0.323,-0.136 0.346,-0.177C0.369,-0.218 0.381,-0.278 0.381,-0.36Z" style="fill:rgb(67,111,142);fill-rule:nonzero;"/>
            </g>
        </g>
        <g transform="matrix(-0.965926,-0.258819,0.258819,-0.965926,883.815,1135.04)">
            <g transform="matrix(48,0,0,48,494.714,65.5879)">
                <path d="M0.3,-0.608C0.262,-0.608 0.232,-0.586 0.21,-0.541C0.188,-0.496 0.177,-0.434 0.177,-0.355C0.177,-0.19 0.22,-0.107 0.306,-0.107C0.344,-0.107 0.383,-0.119 0.425,-0.143L0.425,-0.025C0.39,-0.002 0.345,0.01 0.291,0.01C0.211,0.01 0.149,-0.022 0.106,-0.086C0.063,-0.15 0.041,-0.24 0.041,-0.356C0.041,-0.472 0.063,-0.562 0.108,-0.627C0.152,-0.692 0.214,-0.724 0.293,-0.724C0.319,-0.724 0.344,-0.721 0.368,-0.713C0.392,-0.706 0.417,-0.694 0.445,-0.676L0.401,-0.568C0.386,-0.578 0.371,-0.587 0.354,-0.595C0.337,-0.604 0.319,-0.608 0.3,-0.608Z" style="fill:rgb(67,111,142);fill-rule:nonzero;"/>
            </g>
            <g transform="matrix(48,0,0,48,516.933,65.5879)">
                <path d="M0.418,-0.418L0.4,-0.295L0.499,-0.295L0.499,-0.2L0.387,-0.2L0.358,-0L0.264,-0L0.294,-0.2L0.205,-0.2L0.177,-0L0.083,-0L0.112,-0.2L0.02,-0.2L0.02,-0.295L0.126,-0.295L0.144,-0.418L0.046,-0.418L0.046,-0.512L0.158,-0.512L0.187,-0.714L0.279,-0.714L0.25,-0.512L0.339,-0.512L0.369,-0.714L0.461,-0.714L0.432,-0.512L0.525,-0.512L0.525,-0.418L0.418,-0.418ZM0.219,-0.295L0.307,-0.295L0.325,-0.418L0.236,-0.418L0.219,-0.295Z" style="fill:rgb(67,111,142);fill-rule:nonzero;"/>
            </g>
        </g>
        <g transform="matrix(-1,-1.22465e-16,1.22465e-16,-1,1032.44,1017.85)">
            <g transform="matrix(48,0,0,48,507.769,65.5879)">
                <path d="M0.3,-0.608C0.262,-0.608 0.232,-0.586 0.21,-0.541C0.188,-0.496 0.177,-0.434 0.177,-0.355C0.177,-0.19 0.22,-0.107 0.306,-0.107C0.344,-0.107 0.383,-0.119 0.425,-0.143L0.425,-0.025C0.39,-0.002 0.345,0.01 0.291,0.01C0.211,0.01 0.149,-0.022 0.106,-0.086C0.063,-0.15 0.041,-0.24 0.041,-0.356C0.041,-0.472 0.063,-0.562 0.108,-0.627C0.152,-0.692 0.214,-0.724 0.293,-0.724C0.319,-0.724 0.344,-0.721 0.368,-0.713C0.392,-0.706 0.417,-0.694 0.445,-0.676L0.401,-0.568C0.386,-0.578 0.371,-0.587 0.354,-0.595C0.337,-0.604 0.319,-0.608 0.3,-0.608Z" style="fill:rgb(67,111,142);fill-rule:nonzero;"/>
            </g>
        </g>
        <g transform="matrix(-0.965926,0.258819,-0.258819,-0.965926,1144.91,866.141)">
            <g transform="matrix(48,0,0,48,506.714,65.5879)">
                <path d="M0.063,-0.714L0.245,-0.714C0.319,-0.714 0.373,-0.699 0.407,-0.671C0.441,-0.642 0.458,-0.596 0.458,-0.533C0.458,-0.492 0.449,-0.457 0.431,-0.429C0.413,-0.402 0.389,-0.385 0.358,-0.379L0.358,-0.374C0.398,-0.364 0.427,-0.345 0.445,-0.317C0.463,-0.29 0.472,-0.253 0.472,-0.207C0.472,-0.142 0.455,-0.092 0.42,-0.055C0.385,-0.018 0.338,-0 0.278,-0L0.063,-0L0.063,-0.714ZM0.188,-0.427L0.249,-0.427C0.277,-0.427 0.297,-0.434 0.308,-0.449C0.319,-0.464 0.325,-0.486 0.325,-0.516C0.325,-0.546 0.319,-0.567 0.306,-0.58C0.293,-0.593 0.272,-0.599 0.244,-0.599L0.188,-0.599L0.188,-0.427ZM0.188,-0.316L0.188,-0.116L0.255,-0.116C0.283,-0.116 0.303,-0.125 0.317,-0.142C0.33,-0.159 0.337,-0.185 0.337,-0.22C0.337,-0.284 0.309,-0.316 0.253,-0.316L0.188,-0.316Z" style="fill:rgb(67,111,142);fill-rule:nonzero;"/>
            </g>
        </g>
        <g transform="matrix(-0.866025,0.5,-0.5,-0.866025,1212.88,690.868)">
            <g transform="matrix(48,0,0,48,493.003,65.5879)">
                <path d="M0.401,-0L0.36,-0.18L0.174,-0.18L0.133,-0L0,-0L0.177,-0.717L0.357,-0.717L0.534,-0L0.401,-0ZM0.335,-0.298L0.297,-0.464C0.295,-0.474 0.289,-0.499 0.281,-0.54C0.274,-0.58 0.269,-0.607 0.267,-0.621C0.263,-0.593 0.257,-0.562 0.251,-0.529C0.244,-0.495 0.228,-0.418 0.2,-0.298L0.335,-0.298Z" style="fill:rgb(67,111,142);fill-rule:nonzero;"/>
            </g>
            <g transform="matrix(48,0,0,48,518.644,65.5879)">
                <path d="M0.418,-0.418L0.4,-0.295L0.499,-0.295L0.499,-0.2L0.387,-0.2L0.358,-0L0.264,-0L0.294,-0.2L0.205,-0.2L0.177,-0L0.083,-0L0.112,-0.2L0.02,-0.2L0.02,-0.295L0.126,-0.295L0.144,-0.418L0.046,-0.418L0.046,-0.512L0.158,-0.512L0.187,-0.714L0.279,-0.714L0.25,-0.512L0.339,-0.512L0.369,-0.714L0.461,-0.714L0.432,-0.512L0.525,-0.512L0.525,-0.418L0.418,-0.418ZM0.219,-0.295L0.307,-0.295L0.325,-0.418L0.236,-0.418L0.219,-0.295Z" style="fill:rgb(67,111,142);fill-rule:nonzero;"/>
            </g>
        </g>
        <g transform="matrix(-0.707107,0.707107,-0.707107,-0.707107,1236.04,502.787)">
            <g transform="matrix(48,0,0,48,506.058,65.5879)">
                <path d="M0.401,-0L0.36,-0.18L0.174,-0.18L0.133,-0L0,-0L0.177,-0.717L0.357,-0.717L0.534,-0L0.401,-0ZM0.335,-0.298L0.297,-0.464C0.295,-0.474 0.289,-0.499 0.281,-0.54C0.274,-0.58 0.269,-0.607 0.267,-0.621C0.263,-0.593 0.257,-0.562 0.251,-0.529C0.244,-0.495 0.228,-0.418 0.2,-0.298L0.335,-0.298Z" style="fill:rgb(67,111,142);fill-rule:nonzero;"/>
            </g>
        </g>
        <g transform="matrix(-0.5,0.866025,-0.866025,-0.5,1209.76,315.106)">
            <g transform="matrix(48,0,0,48,492.792,65.5879)">
                <path d="M0.279,-0.396L0.497,-0.396L0.497,-0.03C0.435,-0.003 0.369,0.01 0.3,0.01C0.217,0.01 0.153,-0.022 0.108,-0.085C0.063,-0.148 0.041,-0.239 0.041,-0.358C0.041,-0.472 0.067,-0.562 0.118,-0.627C0.169,-0.692 0.241,-0.724 0.333,-0.724C0.39,-0.724 0.444,-0.709 0.496,-0.68L0.454,-0.572C0.414,-0.595 0.376,-0.607 0.341,-0.607C0.29,-0.607 0.25,-0.584 0.221,-0.539C0.191,-0.494 0.177,-0.433 0.177,-0.355C0.177,-0.275 0.187,-0.214 0.209,-0.171C0.23,-0.128 0.261,-0.107 0.302,-0.107C0.323,-0.107 0.345,-0.11 0.367,-0.115L0.367,-0.279L0.279,-0.279L0.279,-0.396Z" style="fill:rgb(67,111,142);fill-rule:nonzero;"/>
            </g>
            <g transform="matrix(48,0,0,48,518.855,65.5879)">
                <path d="M0.418,-0.418L0.4,-0.295L0.499,-0.295L0.499,-0.2L0.387,-0.2L0.358,-0L0.264,-0L0.294,-0.2L0.205,-0.2L0.177,-0L0.083,-0L0.112,-0.2L0.02,-0.2L0.02,-0.295L0.126,-0.295L0.144,-0.418L0.046,-0.418L0.046,-0.512L0.158,-0.512L0.187,-0.714L0.279,-0.714L0.25,-0.512L0.339,-0.512L0.369,-0.714L0.461,-0.714L0.432,-0.512L0.525,-0.512L0.525,-0.418L0.418,-0.418ZM0.219,-0.295L0.307,-0.295L0.325,-0.418L0.236,-0.418L0.219,-0.295Z" style="fill:rgb(67,111,142);fill-rule:nonzero;"/>
            </g>
        </g>
        <g transform="matrix(-0.258819,0.965926,-0.965926,-0.258819,1134.21,141.839)">
            <g transform="matrix(48,0,0,48,505.847,65.5879)">
                <path d="M0.279,-0.396L0.497,-0.396L0.497,-0.03C0.435,-0.003 0.369,0.01 0.3,0.01C0.217,0.01 0.153,-0.022 0.108,-0.085C0.063,-0.148 0.041,-0.239 0.041,-0.358C0.041,-0.472 0.067,-0.562 0.118,-0.627C0.169,-0.692 0.241,-0.724 0.333,-0.724C0.39,-0.724 0.444,-0.709 0.496,-0.68L0.454,-0.572C0.414,-0.595 0.376,-0.607 0.341,-0.607C0.29,-0.607 0.25,-0.584 0.221,-0.539C0.191,-0.494 0.177,-0.433 0.177,-0.355C0.177,-0.275 0.187,-0.214 0.209,-0.171C0.23,-0.128 0.261,-0.107 0.302,-0.107C0.323,-0.107 0.345,-0.11 0.367,-0.115L0.367,-0.279L0.279,-0.279L0.279,-0.396Z" style="fill:rgb(67,111,142);fill-rule:nonzero;"/>
            </g>
        </g>
        <g transform="matrix(6.12323e-17,1,-1,6.12323e-17,1018.35,-7.93289)">
            <g transform="matrix(48,0,0,48,496.003,65.5879)">
                <path d="M0.195,-0L0.063,-0L0.063,-0.714L0.383,-0.714L0.383,-0.599L0.195,-0.599L0.195,-0.401L0.37,-0.401L0.37,-0.286L0.195,-0.286L0.195,-0Z" style="fill:rgb(67,111,142);fill-rule:nonzero;"/>
            </g>
            <g transform="matrix(48,0,0,48,515.644,65.5879)">
                <path d="M0.418,-0.418L0.4,-0.295L0.499,-0.295L0.499,-0.2L0.387,-0.2L0.358,-0L0.264,-0L0.294,-0.2L0.205,-0.2L0.177,-0L0.083,-0L0.112,-0.2L0.02,-0.2L0.02,-0.295L0.126,-0.295L0.144,-0.418L0.046,-0.418L0.046,-0.512L0.158,-0.512L0.187,-0.714L0.279,-0.714L0.25,-0.512L0.339,-0.512L0.369,-0.714L0.461,-0.714L0.432,-0.512L0.525,-0.512L0.525,-0.418L0.418,-0.418ZM0.219,-0.295L0.307,-0.295L0.325,-0.418L0.236,-0.418L0.219,-0.295Z" style="fill:rgb(67,111,142);fill-rule:nonzero;"/>
            </g>
        </g>
        <g transform="matrix(0.258819,0.965926,-0.965926,0.258819,866.418,-120.97)">
            <g transform="matrix(48,0,0,48,509.058,65.5879)">
                <path d="M0.195,-0L0.063,-0L0.063,-0.714L0.383,-0.714L0.383,-0.599L0.195,-0.599L0.195,-0.401L0.37,-0.401L0.37,-0.286L0.195,-0.286L0.195,-0Z" style="fill:rgb(67,111,142);fill-rule:nonzero;"/>
            </g>
        </g>
        <g transform="matrix(0.5,0.866025,-0.866025,0.5,690.352,-190.743)">
            <g transform="matrix(48,0,0,48,508.659,65.5879)">
                <path d="M0.385,-0L0.063,-0L0.063,-0.714L0.385,-0.714L0.385,-0.599L0.196,-0.599L0.196,-0.429L0.371,-0.429L0.371,-0.314L0.196,-0.314L0.196,-0.116L0.385,-0.116L0.385,-0Z" style="fill:rgb(67,111,142);fill-rule:nonzero;"/>
            </g>
        </g>
        <g transform="matrix(0.707107,0.707107,-0.707107,0.707107,502.545,-213.337)">
            <g transform="matrix(48,0,0,48,492.429,65.5879)">
                <path d="M0.517,-0.364C0.517,-0.246 0.493,-0.156 0.445,-0.094C0.397,-0.031 0.328,-0 0.238,-0L0.063,-0L0.063,-0.714L0.254,-0.714C0.337,-0.714 0.402,-0.683 0.448,-0.622C0.494,-0.56 0.517,-0.474 0.517,-0.364ZM0.381,-0.36C0.381,-0.519 0.337,-0.599 0.249,-0.599L0.196,-0.599L0.196,-0.116L0.239,-0.116C0.287,-0.116 0.323,-0.136 0.346,-0.177C0.369,-0.218 0.381,-0.278 0.381,-0.36Z" style="fill:rgb(67,111,142);fill-rule:nonzero;"/>
            </g>
            <g transform="matrix(48,0,0,48,519.218,65.5879)">
                <path d="M0.418,-0.418L0.4,-0.295L0.499,-0.295L0.499,-0.2L0.387,-0.2L0.358,-0L0.264,-0L0.294,-0.2L0.205,-0.2L0.177,-0L0.083,-0L0.112,-0.2L0.02,-0.2L0.02,-0.295L0.126,-0.295L0.144,-0.418L0.046,-0.418L0.046,-0.512L0.158,-0.512L0.187,-0.714L0.279,-0.714L0.25,-0.512L0.339,-0.512L0.369,-0.714L0.461,-0.714L0.432,-0.512L0.525,-0.512L0.525,-0.418L0.418,-0.418ZM0.219,-0.295L0.307,-0.295L0.325,-0.418L0.236,-0.418L0.219,-0.295Z" style="fill:rgb(67,111,142);fill-rule:nonzero;"/>
            </g>
        </g>
        <g transform="matrix(0.866025,0.5,-0.5,0.866025,315.083,-185.781)">
            <g transform="matrix(48,0,0,48,505.484,65.5879)">
                <path d="M0.517,-0.364C0.517,-0.246 0.493,-0.156 0.445,-0.094C0.397,-0.031 0.328,-0 0.238,-0L0.063,-0L0.063,-0.714L0.254,-0.714C0.337,-0.714 0.402,-0.683 0.448,-0.622C0.494,-0.56 0.517,-0.474 0.517,-0.364ZM0.381,-0.36C0.381,-0.519 0.337,-0.599 0.249,-0.599L0.196,-0.599L0.196,-0.116L0.239,-0.116C0.287,-0.116 0.323,-0.136 0.346,-0.177C0.369,-0.218 0.381,-0.278 0.381,-0.36Z" style="fill:rgb(67,111,142);fill-rule:nonzero;"/>
            </g>
        </g>
        <g transform="matrix(0.965926,0.258819,-0.258819,0.965926,141.193,-111.045)">
            <g transform="matrix(48,0,0,48,494.714,65.5879)">
                <path d="M0.3,-0.608C0.262,-0.608 0.232,-0.586 0.21,-0.541C0.188,-0.496 0.177,-0.434 0.177,-0.355C0.177,-0.19 0.22,-0.107 0.306,-0.107C0.344,-0.107 0.383,-0.119 0.425,-0.143L0.425,-0.025C0.39,-0.002 0.345,0.01 0.291,0.01C0.211,0.01 0.149,-0.022 0.106,-0.086C0.063,-0.15 0.041,-0.24 0.041,-0.356C0.041,-0.472 0.063,-0.562 0.108,-0.627C0.152,-0.692 0.214,-0.724 0.293,-0.724C0.319,-0.724 0.344,-0.721 0.368,-0.713C0.392,-0.706 0.417,-0.694 0.445,-0.676L0.401,-0.568C0.386,-0.578 0.371,-0.587 0.354,-0.595C0.337,-0.604 0.319,-0.608 0.3,-0.608Z" style="fill:rgb(67,111,142);fill-rule:nonzero;"/>
            </g>
            <g transform="matrix(48,0,0,48,516.933,65.5879)">
                <path d="M0.418,-0.418L0.4,-0.295L0.499,-0.295L0.499,-0.2L0.387,-0.2L0.358,-0L0.264,-0L0.294,-0.2L0.205,-0.2L0.177,-0L0.083,-0L0.112,-0.2L0.02,-0.2L0.02,-0.295L0.126,-0.295L0.144,-0.418L0.046,-0.418L0.046,-0.512L0.158,-0.512L0.187,-0.714L0.279,-0.714L0.25,-0.512L0.339,-0.512L0.369,-0.714L0.461,-0.714L0.432,-0.512L0.525,-0.512L0.525,-0.418L0.418,-0.418ZM0.219,-0.295L0.307,-0.295L0.325,-0.418L0.236,-0.418L0.219,-0.295Z" style="fill:rgb(67,111,142);fill-rule:nonzero;"/>
            </g>
        </g>
        <g transform="matrix(1,0,0,1,-7.42898,6.15091)">
            <g transform="matrix(48,0,0,48,507.769,65.5879)">
                <path d="M0.3,-0.608C0.262,-0.608 0.232,-0.586 0.21,-0.541C0.188,-0.496 0.177,-0.434 0.177,-0.355C0.177,-0.19 0.22,-0.107 0.306,-0.107C0.344,-0.107 0.383,-0.119 0.425,-0.143L0.425,-0.025C0.39,-0.002 0.345,0.01 0.291,0.01C0.211,0.01 0.149,-0.022 0.106,-0.086C0.063,-0.15 0.041,-0.24 0.041,-0.356C0.041,-0.472 0.063,-0.562 0.108,-0.627C0.152,-0.692 0.214,-0.724 0.293,-0.724C0.319,-0.724 0.344,-0.721 0.368,-0.713C0.392,-0.706 0.417,-0.694 0.445,-0.676L0.401,-0.568C0.386,-0.578 0.371,-0.587 0.354,-0.595C0.337,-0.604 0.319,-0.608 0.3,-0.608Z" style="fill:rgb(67,111,142);fill-rule:nonzero;"/>
            </g>
        </g>
    </g>
</svg>
